<svg xmlns="http://www.w3.org/2000/svg" height="18" viewBox="0 0 18 18" width="18">
  <title>Redo</title>
  <rect id="Canvas" fill="#ff13dc" opacity="0" width="18" height="18" /><path class="a" d="M2.6685,6.271A5.19551,5.19551,0,0,1,6.1645,5H12.5V2.4a.4.4,0,0,1,.4-.4.39352.39352,0,0,1,.2635.1l3.762,3.7225a.25.25,0,0,1,0,.35L13.166,9.9a.39352.39352,0,0,1-.2635.1.4.4,0,0,1-.4-.4V7H6.0615A3.06949,3.06949,0,0,0,2.95,9.9a2.9445,2.9445,0,0,0,2.78274,3.09783Q5.86626,13.005,6,13H9.5a.5.5,0,0,1,.5.5v1a.5.5,0,0,1-.5.5H6.237a5.16751,5.16751,0,0,1-5.213-4.5065A4.97349,4.97349,0,0,1,2.6685,6.271Z" />
</svg>