<svg xmlns="http://www.w3.org/2000/svg" height="18" viewBox="0 0 18 18" width="18">
  <title>Undo</title>
  <rect id="Canvas" fill="#ff13dc" opacity="0" width="18" height="18" /><path class="a" d="M15.3315,6.271A5.19551,5.19551,0,0,0,11.8355,5H5.5V2.4A.4.4,0,0,0,5.1,2a.39352.39352,0,0,0-.2635.1L1.072,5.8245a.25.25,0,0,0,0,.35L4.834,9.9a.39352.39352,0,0,0,.2635.1.4.4,0,0,0,.4-.4V7h6.441A3.06949,3.06949,0,0,1,15.05,9.9a2.9445,2.9445,0,0,1-2.78274,3.09783Q12.13375,13.005,12,13H8.5a.5.5,0,0,0-.5.5v1a.5.5,0,0,0,.5.5h3.263a5.16751,5.16751,0,0,0,5.213-4.5065A4.97351,4.97351,0,0,0,15.3315,6.271Z" />
</svg>